<svg xmlns:svg="http://www.w3.org/2000/svg" xmlns="http://www.w3.org/2000/svg"
  viewBox="0 0 260.73871 35"
  width="176.5" height="24" version="1.1" id="logo"
  class="svg replaced-svg">
  <path class="suo-logo-neg" display="none" d="m 21.393727,15.728264 c 0,0 2.320703,-10.795552 -7.434375,-13.1223108 C 9.5261492,1.5441789 9.8968523,3.7236103 0.21794605,0.36047844 c 0,0 2.71171875,6.00994706 7.51054685,7.07172126 0.9496094,0.2082907 2.0007813,0.233692 3.0722661,0.233692 h 0.01523 0.03047 c 0.1625,0 0.325,0 0.492578,0 0.167578,0 0.330078,0 0.497656,0 h 0.0457 c 0.208203,0 0.416406,0 0.62461,0.00508 0.01523,0 0.03047,0 0.0457,0 0.421484,0.00508 0.842968,0.025401 1.254297,0.055883 0.01016,0 0.02539,0 0.03555,0.00508 0.208204,0.020321 0.411329,0.040642 0.614454,0.066043 0,0 0.0051,0 0.0051,0 v 0.00508 c 0.02031,0 0.03555,0 0.05586,0 0.903906,0.1320867 1.757031,0.3860997 2.513672,0.8636441 1.558984,1.1989413 2.554297,3.5104592 2.442578,6.1217132 -0.05586,1.229422 -0.345313,2.367401 -0.8125,3.34281 0.06094,-0.381019 0.09648,-0.777279 0.09648,-1.17354 0,-1.458034 -0.426562,-2.839865 -1.193359,-3.881318 -0.8125,-1.102416 -1.909375,-1.706967 -3.0875,-1.706967 -1.178125,0 -2.275,0.604551 -3.0875,1.706967 -0.771875,1.046534 -1.193359,2.423284 -1.193359,3.881318 0,0.594391 0.07109,1.17354 0.208203,1.722208 -0.6550923,-1.19894 -1.0156392,-2.707777 -0.9445454,-4.32838 0.1218749,-2.789062 1.4726564,-5.1259816 3.3007814,-6.0861507 -0.289453,-0.00508 -0.583985,-0.01016 -0.883594,-0.01016 -0.177734,0 -0.350391,0 -0.528125,0 -0.177734,0 -0.350391,0 -0.528125,0 -0.599219,0 -1.2492187,-0.01016 -1.9042968,-0.060963 -1.0917969,1.5189976 -1.7976563,3.4850587 -1.8992188,5.6594097 -0.2285156,5.004055 2.8335938,9.190189 6.8453126,9.357838 3.651172,0.152408 6.830078,-3.109119 7.530859,-7.483223 z m -3.316015,1.600281 c -0.04062,0.97033 -0.289453,1.864456 -0.680469,2.611254 -0.903906,0.919527 -2.036328,1.447874 -3.239844,1.391991 -0.990234,-0.04064 -1.899219,-0.472464 -2.645703,-1.17862 -0.472266,-0.868725 -0.73125,-1.966061 -0.680469,-3.144681 0.06602,-1.493596 0.614453,-2.814464 1.432031,-3.678108 0.776954,0.78744 1.685938,1.671406 1.691016,1.498677 0.0051,-0.157488 -0.132031,-1.346269 -0.269141,-2.438525 0.314844,-0.101605 0.644922,-0.152408 0.980079,-0.137167 2.000781,0.08637 3.529297,2.35724 3.4125,5.075179 z" fill-rule="nonzero" id="path887" style="fill:#0c5d58"></path>
  <path class="suo-logo-neg" display="none" d="m 28.924587,7.7166943 c 0.213281,-0.040642 0.43164,-0.071124 0.670312,-0.086364 0.09141,-0.00508 0.177735,-0.010161 0.264063,-0.015241 1.54375,-0.060963 2.254687,0.2184512 3.336328,0.00508 0.583984,-0.1117658 1.269531,-0.370859 2.254687,-0.9042862 2.914844,-1.5748805 3.930469,-5.303791 3.930469,-5.303791 0,0 -2.650781,1.2802254 -4.646484,1.5443989 -2.666016,0.3606984 -5.0375,-0.4724642 -8.257032,1.722208 -3.407421,2.3267588 -3.224609,8.819331 -3.189062,9.642333 0.289453,0.218451 0.604297,0.472464 0.91914,0.756958 1.401563,1.244664 2.930079,3.017675 3.514063,4.328381 0.05078,0.111766 0.09141,0.228612 0.132031,0.350538 0.121875,0.3861 0.198047,0.817922 0.228516,1.295467 0.492578,0.152407 1.010547,0.228611 1.54375,0.223531 3.422656,-0.04572 6.144531,-3.581583 6.078516,-7.899804 -0.03047,-2.072745 -0.700782,-3.9422811 -1.767188,-5.3291919 -0.106641,0.035562 -0.208203,0.060963 -0.309766,0.091445 -0.482422,0.1270065 -0.888672,0.1676486 -1.284765,0.1676486 -0.284375,0 -0.558594,-0.020321 -0.842969,-0.040642 1.330469,0.9703296 2.224219,2.9668713 2.19375,5.2580683 -0.01523,1.259904 -0.309766,2.418203 -0.797266,3.368212 0.08633,-0.340377 0.13711,-0.690915 0.167579,-1.056694 0.01016,-0.157488 0.02031,-0.320056 0.02031,-0.482625 0,-2.839865 -1.823047,-5.151383 -4.0625,-5.151383 -1.38125,0 -2.605078,0.878885 -3.341406,2.225154 0.172656,-1.503757 0.751562,-2.8144635 1.574218,-3.6831879 0.482422,-0.5131062 1.05625,-0.8687244 1.670704,-1.0262124 M 26.63943,12.451496 c 0.599219,0.609631 1.432032,1.437714 1.43711,1.295466 0.0051,-0.142247 -0.152344,-1.437713 -0.264063,-2.321678 0.457031,-0.248933 0.954688,-0.370859 1.472656,-0.335297 1.889063,0.127006 3.280469,2.301357 3.112891,4.866888 -0.04062,0.57915 -0.152344,1.122738 -0.330078,1.625683 -0.700781,0.838243 -1.604688,1.336109 -2.579688,1.331028 -1.86875,-0.01524 -3.4125,-1.894937 -3.783203,-4.404585 0.182813,-0.79252 0.507813,-1.498676 0.934375,-2.057505" fill-rule="nonzero" id="path889" style="fill:#0c5d58"></path>
  <path id="path869" style="fill:#0c5d58;fill-rule:evenodd;stroke-width:0.676923" d="M 0.16992188 0.40429688 C 0.16992188 0.40429688 2.0036331 4.4660555 5.2460938 5.1835938 C 5.8891705 5.3257476 6.5999113 5.3457031 7.3242188 5.3457031 L 7.3320312 5.3457031 L 7.3515625 5.3457031 L 7.6835938 5.3457031 L 8.0214844 5.3457031 L 8.0488281 5.3457031 L 8.46875 5.3457031 L 8.4960938 5.3457031 C 8.7804014 5.3524724 9.0633486 5.3596418 9.3476562 5.3867188 L 9.375 5.3867188 C 9.5171538 5.4002572 9.6536779 5.4132861 9.7890625 5.4335938 L 9.8222656 5.4335938 C 10.431496 5.5215937 11.007023 5.690702 11.521484 6.015625 C 12.570715 6.8279325 13.24829 8.3914344 13.173828 10.158203 C 13.112905 11.58651 12.570253 12.838993 11.771484 13.644531 C 12.035484 13.136839 12.204435 12.535521 12.238281 11.878906 C 12.319512 10.044445 11.283533 8.5062356 9.9296875 8.4453125 C 9.6995337 8.4385433 9.4774242 8.4665541 9.2675781 8.5410156 C 9.3623473 9.2788616 9.455988 10.084008 9.4492188 10.185547 C 9.4424495 10.300624 8.8278712 9.704691 8.3066406 9.1699219 C 7.7583331 9.7588448 7.378506 10.645682 7.3378906 11.654297 C 7.3040445 12.446297 7.4806744 13.184515 7.7988281 13.773438 C 6.8917515 12.920515 6.3298354 11.471361 6.4042969 9.8535156 C 6.4855276 7.97167 7.3979499 6.3881272 8.6367188 5.7382812 C 8.4404111 5.731512 8.2440925 5.7324219 8.0410156 5.7324219 L 7.6835938 5.7324219 L 7.3242188 5.7324219 C 6.918065 5.7324219 6.4790624 5.7252524 6.0390625 5.6914062 C 5.3012166 6.720329 4.8187356 8.0467023 4.7578125 9.515625 C 4.6021202 12.89347 6.6742111 15.730626 9.3886719 15.845703 C 11.872979 15.954011 14.018341 13.753075 14.492188 10.794922 C 14.492188 10.794922 16.062889 3.4971522 9.4628906 1.9199219 C 6.4641222 1.2023836 6.7157662 2.6787578 0.16992188 0.40429688 z M 26.664062 1.1152344 C 26.664062 1.1152344 24.870514 1.9822032 23.523438 2.1582031 C 21.716053 2.4018954 20.117192 1.8398045 17.9375 3.3222656 C 15.629193 4.8927267 15.75222 9.2789076 15.779297 9.8339844 C 16.300527 10.21983 16.922396 10.794156 17.470703 11.410156 C 17.484242 11.423695 17.492321 11.437633 17.505859 11.451172 C 17.560013 11.505326 17.606912 11.56603 17.654297 11.626953 C 17.674605 11.65403 17.702349 11.681907 17.722656 11.708984 C 17.763272 11.756369 17.802225 11.811081 17.849609 11.865234 L 17.931641 11.966797 C 17.965487 12.014181 18.005216 12.060037 18.039062 12.107422 C 18.066139 12.148037 18.101829 12.182041 18.128906 12.222656 C 18.162752 12.263272 18.18881 12.310947 18.222656 12.351562 C 18.249733 12.392178 18.28347 12.433084 18.310547 12.480469 C 18.337624 12.521084 18.365501 12.561857 18.392578 12.595703 C 18.419655 12.643088 18.453392 12.683084 18.480469 12.730469 C 18.500776 12.764315 18.526567 12.798185 18.546875 12.832031 C 18.573952 12.879416 18.601829 12.935037 18.628906 12.982422 C 18.642445 13.009499 18.662243 13.035423 18.675781 13.0625 C 18.716397 13.136962 18.75131 13.212648 18.785156 13.287109 C 18.819002 13.36834 18.851829 13.454969 18.878906 13.542969 L 18.900391 13.625 C 18.920698 13.692692 18.933727 13.75262 18.947266 13.820312 C 18.987881 14.003082 19.007946 14.193408 19.021484 14.396484 C 19.353177 14.498023 19.705684 14.551691 20.064453 14.544922 C 22.379529 14.517845 24.221213 12.122616 24.173828 9.2050781 C 24.15352 7.8038478 23.69996 6.5376692 22.982422 5.6035156 C 22.56273 5.7389002 22.22336 5.7792969 21.898438 5.7792969 C 21.708899 5.7792969 21.519617 5.7654916 21.330078 5.7519531 C 22.230386 6.4085683 22.832808 7.7564872 22.8125 9.3066406 C 22.792192 10.741717 22.237179 11.987273 21.431641 12.677734 C 21.709179 12.197119 21.898838 11.600108 21.939453 10.957031 C 22.05453 9.2241087 21.113369 7.7559687 19.833984 7.6679688 C 19.481984 7.6476611 19.149275 7.7292068 18.837891 7.8984375 C 18.912352 8.5008989 19.021484 9.3739808 19.021484 9.46875 C 19.014715 9.5635192 18.453029 9.0086261 18.046875 8.5957031 C 17.701644 9.0424722 17.457007 9.6246348 17.355469 10.28125 C 17.301315 9.956327 17.268621 9.6176249 17.275391 9.265625 C 17.302468 7.3093179 18.296921 5.7105985 19.589844 5.3789062 C 19.731998 5.3518293 19.880507 5.3318978 20.042969 5.3183594 C 21.809737 5.2100517 22.034061 5.7658939 24.003906 4.703125 C 25.973752 3.6403561 26.664063 1.1152344 26.664062 1.1152344 z M 106.39844 7.0390625 C 105.61998 7.0390625 104.94922 7.6680279 104.94922 8.4667969 C 104.94922 9.2723351 105.61998 9.9160156 106.39844 9.9160156 C 107.19721 9.9160156 107.84766 9.2655659 107.84766 8.4667969 C 107.84766 7.6680279 107.19721 7.0390625 106.39844 7.0390625 z M 84.351562 7.1875 C 80.520179 7.1875 77.716797 9.9361946 77.716797 13.767578 C 77.716797 17.598962 80.520179 20.346613 84.351562 20.339844 C 88.203254 20.339844 91.005859 17.598962 91.005859 13.767578 C 91.005859 9.9294254 88.203254 7.1875 84.351562 7.1875 z M 34.001953 7.2070312 C 31.009954 7.2070313 29.181641 8.9613095 29.181641 11.080078 C 29.181641 15.865923 36.5 14.320975 36.5 16.568359 C 36.5 17.292667 35.77634 17.976562 34.287109 17.976562 C 32.533879 17.976563 31.137679 17.197825 30.244141 16.263672 L 28.775391 18.322266 C 29.953236 19.527188 31.707742 20.345703 34.158203 20.345703 C 37.590202 20.345703 39.248047 18.592287 39.248047 16.263672 C 39.248047 11.518442 31.943359 12.873609 31.943359 10.849609 C 31.943359 10.084687 32.593505 9.5703125 33.757812 9.5703125 C 35.050735 9.5703125 36.426155 10.010382 37.455078 10.964844 L 38.957031 8.9804688 C 37.697955 7.8161614 36.019183 7.2070312 34.001953 7.2070312 z M 96.353516 7.2070312 C 94.505516 7.2070312 93.246094 8.4470799 93.246094 10.410156 L 93.246094 10.904297 L 91.722656 10.904297 L 91.722656 13.021484 L 93.246094 13.021484 L 93.246094 20.117188 L 93.246094 20.123047 L 95.689453 20.123047 L 95.689453 13.029297 L 97.558594 13.029297 L 97.558594 10.910156 L 95.689453 10.910156 L 95.689453 10.416016 C 95.689453 9.5563236 96.163831 9.1171875 96.833984 9.1171875 C 97.273984 9.1171875 97.591335 9.2456323 97.841797 9.4960938 L 98.755859 8.0664062 C 98.166936 7.436868 97.233515 7.2070312 96.353516 7.2070312 z M 102.58789 7.2070312 C 100.77374 7.2070312 99.480469 8.4064645 99.480469 10.410156 L 99.480469 10.904297 L 97.957031 10.904297 L 97.957031 13.021484 L 99.480469 13.021484 L 99.480469 20.117188 L 101.92383 20.117188 L 101.92383 13.021484 L 103.79297 13.021484 L 103.79297 10.904297 L 101.92383 10.904297 L 101.92383 10.410156 C 101.92383 9.5707719 102.38467 9.109375 103.06836 9.109375 C 103.38651 9.109375 103.65812 9.2044592 103.84766 9.3398438 L 104.3418 7.5859375 C 103.9018 7.3625529 103.27158 7.2070312 102.58789 7.2070312 z M 134.56445 7.3359375 L 134.56445 20.123047 L 139.60547 20.123047 C 140.60226 20.123047 141.51505 19.968813 142.3457 19.662109 C 143.18914 19.355406 143.90434 18.928417 144.49219 18.378906 C 145.09282 17.816617 145.56032 17.144772 145.89258 16.365234 C 146.22484 15.572917 146.39062 14.69673 146.39062 13.738281 C 146.39062 12.779833 146.22484 11.905599 145.89258 11.113281 C 145.56032 10.320964 145.09282 9.6491198 144.49219 9.0996094 C 143.90434 8.5373197 143.18914 8.1035785 142.3457 7.796875 C 141.51505 7.4901715 140.60226 7.3359375 139.60547 7.3359375 L 134.56445 7.3359375 z M 84.351562 9.5898438 C 86.700485 9.5898438 88.222656 11.38481 88.222656 13.767578 C 88.222656 16.130039 86.700485 17.943359 84.351562 17.943359 C 82.009409 17.943359 80.5 16.130039 80.5 13.767578 C 80.5 11.38481 82.009409 9.5898438 84.351562 9.5898438 z M 137.28516 9.7324219 L 139.60547 9.7324219 C 140.25721 9.7324219 140.83168 9.8345935 141.33008 10.039062 C 141.84125 10.243531 142.26344 10.524992 142.5957 10.882812 C 142.92797 11.240633 143.17762 11.669576 143.34375 12.167969 C 143.52266 12.653583 143.61133 13.175992 143.61133 13.738281 C 143.61133 14.275012 143.52266 14.787824 143.34375 15.273438 C 143.16484 15.759051 142.90168 16.186041 142.55664 16.556641 C 142.2116 16.914461 141.78941 17.202674 141.29102 17.419922 C 140.79262 17.624391 140.23166 17.726562 139.60547 17.726562 L 137.28516 17.726562 L 137.28516 9.7324219 z M 15.189453 10.023438 C 14.972838 12.155745 14.053598 13.990766 12.753906 15.134766 C 12.977291 15.500304 13.437463 16.244018 13.830078 16.826172 C 14.750693 18.186787 16.375 20.345703 16.375 20.345703 C 18.101153 18.389396 18.980834 14.952254 18.324219 13.476562 C 17.836834 12.346101 16.18453 10.652976 15.189453 10.023438 z M 152.5625 10.634766 C 151.79574 10.634766 151.11235 10.768744 150.51172 11.037109 C 149.91109 11.292696 149.40023 11.642568 148.97852 12.089844 C 148.5568 12.52434 148.23003 13.037152 148 13.625 C 147.78275 14.212848 147.67578 14.83263 147.67578 15.484375 C 147.67578 16.148899 147.78275 16.77348 148 17.361328 C 148.23003 17.949176 148.5568 18.466787 148.97852 18.914062 C 149.40023 19.348559 149.91109 19.700384 150.51172 19.96875 C 151.11235 20.224336 151.79574 20.351562 152.5625 20.351562 C 153.32926 20.351563 154.01265 20.224336 154.61328 19.96875 C 155.22669 19.700384 155.7443 19.348559 156.16602 18.914062 C 156.58773 18.466787 156.90775 17.949176 157.125 17.361328 C 157.35503 16.77348 157.4707 16.148899 157.4707 15.484375 C 157.4707 14.83263 157.35503 14.212848 157.125 13.625 C 156.90775 13.037152 156.58773 12.52434 156.16602 12.089844 C 155.7443 11.642568 155.22669 11.292696 154.61328 11.037109 C 154.01265 10.768744 153.32926 10.634766 152.5625 10.634766 z M 163.58594 10.634766 C 162.8703 10.634766 162.21196 10.75524 161.61133 10.998047 C 161.0107 11.228074 160.49309 11.559644 160.05859 11.994141 C 159.6241 12.428637 159.28578 12.946247 159.04297 13.546875 C 158.80016 14.134723 158.67773 14.781513 158.67773 15.484375 C 158.67773 16.200016 158.80016 16.856404 159.04297 17.457031 C 159.28578 18.04488 159.6241 18.557691 160.05859 18.992188 C 160.49309 19.426684 161.0107 19.765006 161.61133 20.007812 C 162.21196 20.23784 162.8703 20.351562 163.58594 20.351562 C 164.53161 20.351562 165.29692 20.179026 165.88477 19.833984 C 166.48539 19.488943 166.93939 19.100512 167.24609 18.666016 L 165.65625 17.189453 C 165.439 17.496157 165.16429 17.739058 164.83203 17.917969 C 164.49977 18.096879 164.12289 18.185547 163.70117 18.185547 C 162.95997 18.185547 162.35174 17.937846 161.87891 17.439453 C 161.41885 16.94106 161.18945 16.289472 161.18945 15.484375 C 161.18945 14.679278 161.41885 14.032489 161.87891 13.546875 C 162.35174 13.048482 162.95997 12.800781 163.70117 12.800781 C 164.55739 12.800781 165.20897 13.132351 165.65625 13.796875 L 167.24609 12.300781 C 166.93939 11.879064 166.48539 11.497385 165.88477 11.152344 C 165.29692 10.807302 164.53161 10.634766 163.58594 10.634766 z M 172.13477 10.634766 C 171.52136 10.634766 170.97869 10.716681 170.50586 10.882812 C 170.0458 11.036164 169.64867 11.247259 169.31641 11.515625 C 168.99692 11.783991 168.75402 12.097257 168.58789 12.455078 C 168.42176 12.80012 168.33984 13.163496 168.33984 13.546875 C 168.33984 14.160282 168.47382 14.646086 168.74219 15.003906 C 169.02333 15.361727 169.36165 15.643187 169.75781 15.847656 C 170.16675 16.052125 170.60724 16.206359 171.08008 16.308594 C 171.56569 16.410828 172.00619 16.506248 172.40234 16.595703 C 172.81128 16.672379 173.1496 16.774551 173.41797 16.902344 C 173.69911 17.030137 173.83984 17.220976 173.83984 17.476562 C 173.83984 17.770487 173.71262 18.013388 173.45703 18.205078 C 173.21422 18.383988 172.82384 18.474609 172.28711 18.474609 C 171.99319 18.474609 171.69342 18.442803 171.38672 18.378906 C 171.09279 18.30223 170.79978 18.204858 170.50586 18.089844 C 170.22471 17.962051 169.9548 17.82132 169.69922 17.667969 C 169.45641 17.514617 169.25207 17.362336 169.08594 17.208984 L 168.0332 18.914062 C 168.51882 19.361338 169.12509 19.713164 169.85352 19.96875 C 170.59472 20.224336 171.36873 20.351562 172.17383 20.351562 C 172.81279 20.351563 173.38051 20.276399 173.87891 20.123047 C 174.3773 19.969695 174.79274 19.765352 175.125 19.509766 C 175.47004 19.2414 175.73125 18.928133 175.91016 18.570312 C 176.08907 18.199712 176.17969 17.802577 176.17969 17.380859 C 176.17969 16.754673 176.04571 16.257319 175.77734 15.886719 C 175.50898 15.516119 175.1687 15.221155 174.75977 15.003906 C 174.35083 14.786658 173.91033 14.627625 173.4375 14.525391 C 172.96467 14.410377 172.52417 14.314957 172.11523 14.238281 C 171.7063 14.148826 171.36797 14.046654 171.09961 13.931641 C 170.83124 13.816627 170.69727 13.64409 170.69727 13.414062 C 170.69727 13.158476 170.82449 12.940629 171.08008 12.761719 C 171.34844 12.582808 171.70702 12.494141 172.1543 12.494141 C 172.72937 12.494141 173.25853 12.601111 173.74414 12.818359 C 174.22975 13.022828 174.61339 13.272482 174.89453 13.566406 L 175.87305 11.898438 C 175.41299 11.527837 174.87033 11.228074 174.24414 10.998047 C 173.63073 10.75524 172.92708 10.634766 172.13477 10.634766 z M 55.521484 10.679688 C 54.391023 10.679688 53.381734 11.180681 52.677734 12.074219 L 52.677734 10.910156 L 50.253906 10.910156 L 50.253906 23.623047 L 52.677734 23.623047 L 52.677734 18.931641 C 53.42235 19.886102 54.431639 20.346613 55.521484 20.339844 C 57.890714 20.339844 59.603516 18.566461 59.603516 15.5 C 59.603516 12.433539 57.883945 10.679688 55.521484 10.679688 z M 76.376953 10.679688 C 75.232953 10.679687 74.089299 11.350845 73.439453 12.169922 L 73.439453 10.910156 L 71.015625 10.910156 L 71.015625 20.117188 L 73.439453 20.117188 L 73.439453 14.037109 C 73.838838 13.448186 74.908262 12.988281 75.707031 12.988281 C 75.9778 12.988281 76.207722 13.002353 76.376953 13.042969 L 76.376953 10.679688 z M 65.248047 10.6875 C 62.445586 10.6875 60.482422 12.838783 60.482422 15.505859 C 60.482422 18.457243 62.595977 20.346746 65.398438 20.353516 C 66.826745 20.353516 68.273654 19.913603 69.1875 19.074219 L 68.119141 17.509766 C 67.530218 18.078381 66.440571 18.423828 65.662109 18.423828 C 64.105187 18.423828 63.171317 17.455323 63.015625 16.291016 L 69.859375 16.291016 L 69.859375 15.757812 C 69.859375 12.745506 67.989585 10.6875 65.248047 10.6875 z M 113.68945 10.6875 C 110.84638 10.6875 108.80859 12.683091 108.80859 15.505859 C 108.80859 18.342166 110.84638 20.345837 113.68945 20.359375 C 115.57807 20.359375 116.72085 19.541333 117.33008 18.681641 L 115.74609 17.212891 C 115.31286 17.822121 114.64407 18.201172 113.80469 18.201172 C 112.33576 18.201172 111.30664 17.117979 111.30664 15.513672 C 111.30664 13.916134 112.33576 12.845703 113.80469 12.845703 C 114.64407 12.845703 115.30609 13.184138 115.74609 13.833984 L 117.33008 12.345703 C 116.72085 11.506319 115.57807 10.6875 113.68945 10.6875 z M 122.4082 10.6875 C 119.60574 10.6875 117.64258 12.838783 117.64258 15.505859 C 117.64258 18.457243 119.75418 20.346746 122.55664 20.353516 C 123.98495 20.353516 125.43381 19.913603 126.34766 19.074219 L 125.27734 17.509766 C 124.68842 18.078381 123.59877 18.423828 122.82031 18.423828 C 121.26339 18.423828 120.32952 17.455323 120.17383 16.291016 L 127.01758 16.291016 L 127.01758 15.757812 C 127.01758 12.745506 125.15651 10.6875 122.4082 10.6875 z M 40.25 10.910156 L 40.25 17.449219 C 40.25 19.243064 41.196704 20.345703 43.220703 20.345703 C 44.730241 20.345703 45.835305 19.655172 46.464844 18.951172 L 46.464844 20.117188 L 48.894531 20.117188 L 48.894531 10.910156 L 46.470703 10.910156 L 46.470703 17.144531 C 46.051011 17.6793 45.3072 18.193359 44.373047 18.193359 C 43.344124 18.193359 42.673828 17.773525 42.673828 16.494141 L 42.673828 10.910156 L 40.25 10.910156 z M 105.20117 10.910156 L 105.20117 20.117188 L 107.62305 20.117188 L 107.62305 10.910156 L 105.20117 10.910156 z M 65.248047 12.609375 C 66.845585 12.609375 67.454702 13.766485 67.515625 14.646484 L 62.980469 14.646484 C 63.095546 13.732638 63.745278 12.609375 65.248047 12.609375 z M 122.4082 12.609375 C 124.00574 12.609375 124.61486 13.766485 124.67578 14.646484 L 120.14062 14.646484 C 120.2557 13.732638 120.90543 12.609375 122.4082 12.609375 z M 152.5625 12.800781 C 152.94588 12.800781 153.2842 12.875945 153.57812 13.029297 C 153.87205 13.169869 154.11495 13.362662 154.30664 13.605469 C 154.51111 13.848276 154.66534 14.134535 154.76758 14.466797 C 154.88259 14.78628 154.93945 15.126554 154.93945 15.484375 C 154.93945 15.854975 154.88259 16.204847 154.76758 16.537109 C 154.66534 16.856592 154.51111 17.138052 154.30664 17.380859 C 154.11495 17.623666 153.87205 17.821258 153.57812 17.974609 C 153.2842 18.115182 152.94588 18.185547 152.5625 18.185547 C 152.17912 18.185547 151.8408 18.115182 151.54688 17.974609 C 151.26573 17.821258 151.02283 17.623666 150.81836 17.380859 C 150.61389 17.138052 150.46161 16.856592 150.35938 16.537109 C 150.25714 16.204847 150.20508 15.854975 150.20508 15.484375 C 150.20508 15.126554 150.25714 14.78628 150.35938 14.466797 C 150.46161 14.134535 150.61389 13.848276 150.81836 13.605469 C 151.02283 13.362662 151.26573 13.169869 151.54688 13.029297 C 151.8408 12.875945 152.17912 12.800781 152.5625 12.800781 z M 54.755859 12.839844 C 56.150321 12.839844 57.083984 13.92186 57.083984 15.505859 C 57.083984 17.103397 56.150321 18.194403 54.755859 18.201172 C 53.977398 18.201172 53.077119 17.720959 52.677734 17.152344 L 52.677734 13.888672 C 53.077119 13.299749 53.977398 12.839844 54.755859 12.839844 z M 130.29492 17.212891 C 129.49615 17.212891 128.83789 17.855661 128.83789 18.667969 C 128.83789 19.466738 129.48938 20.123047 130.29492 20.123047 C 131.10723 20.123047 131.75 19.473507 131.75 18.667969 C 131.75 17.862431 131.10723 17.212891 130.29492 17.212891 z M 130.29492 17.408203 C 130.98538 17.408203 131.55273 17.963969 131.55273 18.667969 C 131.55273 19.365199 130.99215 19.933594 130.29492 19.933594 C 129.59092 19.933594 129.02734 19.365199 129.02734 18.667969 C 129.02734 17.963969 129.59092 17.408203 130.29492 17.408203 z M 129.73242 17.835938 L 129.73242 19.507812 L 129.95508 19.507812 L 129.95508 18.84375 L 130.25977 18.84375 L 130.69336 19.507812 L 130.96484 19.507812 L 130.51758 18.837891 C 130.61235 18.837891 130.94336 18.714104 130.94336 18.341797 C 130.94336 18.030412 130.70032 17.835938 130.41602 17.835938 L 129.73242 17.835938 z M 129.95508 18.025391 L 130.41602 18.025391 C 130.55817 18.025391 130.7207 18.159938 130.7207 18.335938 C 130.7207 18.511937 130.55817 18.640625 130.41602 18.640625 L 129.95508 18.640625 L 129.95508 18.025391 z " transform="matrix(1.4772731,0,0,1.4772731,0,-0.22727773)"></path>
</svg>